<svg xmlns="http://www.w3.org/2000/svg" viewBox="0 0 64 64" id="restaurant"><g data-name="Filled outline"><path fill="#81d2f5" d="M47.001 6.999v25h-15v-29h11a4 4 0 0 1 4 4ZM16.979 32V7a4 4 0 0 1 4-4H32v29Z"></path><path fill="#66b9de" d="M23 29a2 2 0 0 1-2-2V4a3.977 3.977 0 0 1 .141-1H21a4 4 0 0 0-4 4v25h14.977v-3zm15 0a2 2 0 0 1-2-2V3h-4v29h14.977v-3z"></path><path fill="#63697c" d="M12 32h40a4 4 0 0 1-4 4H16a4 4 0 0 1-4-4Z"></path><path fill="#545a6d" d="M51.445 34H18a3.982 3.982 0 0 1-3.445-2H12a4 4 0 0 0 4 4h32a3.982 3.982 0 0 0 3.445-2Z"></path><path fill="#34c1ad" d="M29 27h3v5h-5v-3a2 2 0 0 1 2-2zm3 0h3a2 2 0 0 1 2 2v3h-5v-5z"></path><path fill="#21abab" d="M31 31a3 3 0 0 1-3-3 1.99 1.99 0 0 1 .18-.82A2 2 0 0 0 27 29v3h5v-1zm6 0a4 4 0 0 1-4-4h-1v5h5v-1z"></path><path fill="#63697c" d="M59 22a2 2 0 0 0-2 2v20H46a2 2 0 0 0 0 4h11a4 4 0 0 0 4-4V24a2 2 0 0 0-2-2Z"></path><path fill="#545a6d" d="M59.82 22.18A1.99 1.99 0 0 1 60 23v20a4 4 0 0 1-4 4H45a1.99 1.99 0 0 1-.82-.18A2 2 0 0 0 46 48h11a4 4 0 0 0 4-4V24a2 2 0 0 0-1.18-1.82Z"></path><path fill="#63697c" d="M34 55.429V40h2a2 2 0 0 0 2-2v-2H26v2a2 2 0 0 0 2 2h2v15.429l-3.373 2.409A3.885 3.885 0 0 0 25 61h14a3.885 3.885 0 0 0-1.627-3.162Z"></path><path fill="#545a6d" d="M28 38v-2h-2v2a2 2 0 0 0 2 2h2a2 2 0 0 1-2-2zm.627 19.838L32 55.429V40h-2v15.429l-3.373 2.409A3.885 3.885 0 0 0 25 61h2a3.885 3.885 0 0 1 1.627-3.162z"></path><path fill="#63697c" d="M5 22a2 2 0 0 1 2 2v20h11a2 2 0 0 1 0 4H7a4 4 0 0 1-4-4V24a2 2 0 0 1 2-2Z"></path><path fill="#63697c" d="M5 22a2 2 0 0 1 2 2v20h11a2 2 0 0 1 0 4H7a4 4 0 0 1-4-4V24a2 2 0 0 1 2-2Z"></path><path fill="#545a6d" d="M19 47H8a4 4 0 0 1-4-4V23a1.99 1.99 0 0 1 .18-.82A2 2 0 0 0 3 24v20a4 4 0 0 0 4 4h11a2 2 0 0 0 1.82-1.18A1.99 1.99 0 0 1 19 47Z"></path><path d="M43 2H20.978a5.006 5.006 0 0 0-5 5v24H12a1 1 0 0 0-1 1 5.006 5.006 0 0 0 5 5h9v1a3 3 0 0 0 3 3h1v13.914l-2.953 2.11A4.9 4.9 0 0 0 24 61a1 1 0 0 0 1 1h14a1 1 0 0 0 1-1 4.9 4.9 0 0 0-2.047-3.976L35 54.914V41h1a3 3 0 0 0 3-3v-1h9a5.006 5.006 0 0 0 5-5 1 1 0 0 0-1-1h-4V7a5.006 5.006 0 0 0-5-5Zm0 2a3 3 0 0 1 3 3v24h-8v-2a3 3 0 0 0-3-3h-2V4ZM30.978 31H28v-2a1 1 0 0 1 1-1h1.978ZM33 28h2a1 1 0 0 1 1 1v2h-3ZM17.979 7a3 3 0 0 1 3-3h10v22H29a3 3 0 0 0-3 3v2h-8.021ZM37 38a1 1 0 0 1-1 1h-2a1 1 0 0 0-1 1v15.429a1 1 0 0 0 .419.813l3.372 2.409A2.892 2.892 0 0 1 37.82 60H26.18a2.892 2.892 0 0 1 1.029-1.349l3.372-2.409a1 1 0 0 0 .419-.813V40a1 1 0 0 0-1-1h-2a1 1 0 0 1-1-1v-1h10Zm11-3H16a3.006 3.006 0 0 1-2.829-2h37.658A3.006 3.006 0 0 1 48 35Z"></path><path d="M43 15a1 1 0 0 0 1-1V7a1 1 0 0 0-2 0v7a1 1 0 0 0 1 1Z"></path><circle cx="43" cy="18" r="1"></circle><path d="M59 21a3 3 0 0 0-3 3v19H46a3 3 0 0 0 0 6h.743l-2.718 11.775a1 1 0 0 0 .75 1.2A1.036 1.036 0 0 0 45 62a1 1 0 0 0 .974-.775L48.8 49H57c.068 0 .132-.017.2-.02l2.825 12.245A1 1 0 0 0 61 62a1.036 1.036 0 0 0 .226-.025 1 1 0 0 0 .75-1.2L59.142 48.5A4.993 4.993 0 0 0 62 44V24a3 3 0 0 0-3-3zm1 23a3 3 0 0 1-3 3H46a1 1 0 0 1 0-2h11a1 1 0 0 0 1-1V24a1 1 0 0 1 2 0zM4.858 48.5 2.025 60.775a1 1 0 0 0 .75 1.2A1.036 1.036 0 0 0 3 62a1 1 0 0 0 .974-.775L6.8 48.98c.068 0 .132.02.2.02h8.2l2.821 12.225A1 1 0 0 0 19 62a1.036 1.036 0 0 0 .226-.025 1 1 0 0 0 .75-1.2L17.257 49H18a3 3 0 0 0 0-6H8V24a3 3 0 0 0-6 0v20a4.993 4.993 0 0 0 2.858 4.5zM4 24a1 1 0 0 1 2 0v20a1 1 0 0 0 1 1h11a1 1 0 0 1 0 2H7a3 3 0 0 1-3-3z"></path></g></svg>